<?xml version="1.0" encoding="UTF-8"?>
<!DOCTYPE svg PUBLIC "-//W3C//DTD SVG 1.1//EN" "http://www.w3.org/Graphics/SVG/1.1/DTD/svg11.dtd">
<!-- Creator: CorelDRAW X8 -->
<svg xmlns="http://www.w3.org/2000/svg" xml:space="preserve" width="50mm" height="50mm" version="1.1" style="shape-rendering:geometricPrecision; text-rendering:geometricPrecision; image-rendering:optimizeQuality; fill-rule:evenodd; clip-rule:evenodd"
viewBox="0 0 5000 5000"
 xmlns:xlink="http://www.w3.org/1999/xlink">
 <defs>
  <style type="text/css">
   <![CDATA[
    .fil0 {fill:#4C364C}
   ]]>
  </style>
 </defs>
 <g id="图层_x0020_1">
  <metadata id="CorelCorpID_0Corel-Layer"/>
  <g id="_2834409502528">
   <path class="fil0" d="M2858 3484c42,-107 273,-216 375,-262 60,-27 87,-61 134,-82 -1,64 32,17 -32,64l-332 193c-66,49 -50,59 -145,87zm-1847 -346c49,-33 241,60 320,80l843 254c49,17 122,31 153,72 -50,21 -226,-55 -326,-85l-664 -215c-98,-24 -274,-41 -326,-106zm2367 -67c-87,-304 380,-368 433,-117 60,290 -353,396 -433,117zm-1455 -348c56,-3 41,1 73,48l202 254c77,103 57,100 191,266 39,49 45,40 56,103 -98,-38 -321,-410 -398,-504 -93,-112 -46,-36 -124,-167zm1206 -75c-1,-161 165,-157 191,-65 19,67 -9,119 -56,133 -92,28 -99,-31 -135,-68zm-1124 -101c-103,338 -586,185 -489,-146 93,-317 585,-167 489,146zm903 25l178 18c-31,58 7,34 -195,17l-145 567c-15,51 -25,141 -69,163 -28,-65 167,-596 172,-736l-755 -75c60,160 382,778 383,780 28,87 12,29 -3,57 -42,-39 -207,-371 -228,-420 -43,-102 -192,-356 -192,-449 127,9 752,73 815,59l77 -277c11,18 31,-25 3,137 -11,63 -27,95 -41,159zm321 -328c47,20 7,-27 48,40 5,8 27,59 31,70 27,66 22,83 58,146 35,61 120,215 124,281 -48,-16 -14,32 -84,-118 -44,-94 -170,-334 -177,-419zm838 -187c-28,94 -119,108 -216,75 -70,-24 -107,-122 -59,-210 83,-151 341,-82 275,135zm-1369 -101c-34,-210 125,-384 286,-421 193,-44 395,95 426,295 76,497 -643,553 -712,126zm1077 -323c42,17 13,-22 63,91 25,56 39,46 25,93 -42,-21 -40,-27 -65,-87 -13,-30 -39,-76 -23,-97zm-443 -10c10,-59 26,-98 81,-67 -28,44 -25,45 -81,67zm-1685 26c34,93 98,188 148,293l134 295c-79,-35 -52,-40 -89,-121 -33,-72 -183,-396 -245,-438 -43,108 142,404 102,511 -59,-26 -70,-163 -87,-232 -21,-85 -49,-178 -64,-262l-173 -15c-14,56 -201,385 -256,541 -42,121 -146,280 -203,405 -63,136 -37,101 -79,119 -27,-53 76,-213 107,-261l403 -837c-95,-34 -192,-177 -143,-339 33,-113 145,-221 292,-221 326,0 393,452 153,562zm1697 -285c-67,-422 567,-480 619,-101 25,176 -113,325 -262,348 -171,26 -336,-113 -357,-247zm-361 -951c137,-74 284,58 317,143 59,151 -40,270 -142,310 -282,110 -477,-289 -175,-453zm793 -35c263,-79 386,321 123,402 -282,87 -376,-326 -123,-402zm-436 243c49,-30 200,-40 248,-17 -23,35 -149,45 -202,40 -82,-8 -19,3 -46,-23zm-1578 137l8 202c172,54 709,318 789,337 65,-139 155,-187 347,-161 7,-62 13,-63 31,-120 4,-14 12,-45 15,-54l29 -48c16,36 -31,170 -39,231 40,38 47,57 99,65 -2,-79 -20,-235 24,-285 13,21 7,1 13,37 22,137 -45,303 55,414 185,-23 163,-51 182,5 -142,60 -156,-50 -199,104 -215,24 -358,70 -416,237 -173,-61 -190,-238 -167,-396 -141,-31 -499,-232 -725,-312 -137,-48 -70,81 -229,46 -128,-28 -196,34 -263,-41 -154,-174 48,-567 400,-316 38,27 -9,0 31,22 108,-43 209,-96 312,-147 130,-64 263,-161 308,-126 -48,52 -507,267 -605,306zm699 -494c177,-89 235,157 115,223 -119,64 -296,-133 -115,-223zm1580 -133l-2985 0c-218,131 -260,109 -259,456 1,318 -13,2023 4,2180 104,73 186,104 185,270 -1,195 -126,206 -186,270 47,330 304,286 626,286 306,0 624,9 928,-1 44,-121 103,-220 255,-222 190,-2 236,174 270,221 178,8 1142,23 1238,-26 166,-86 165,-254 165,-477l0 -2552c1,-308 -69,-270 -241,-405z"/>
   <path class="fil0" d="M4117 4305c5,162 39,410 -93,452 -109,36 -409,20 -472,-44 -72,-73 -73,-368 45,-400 74,-21 419,-8 520,-8zm-508 557l435 0c111,-85 172,-76 172,-321 1,-425 66,-636 -339,-637 -112,0 -367,-12 -462,7l-1 63c302,104 696,-169 708,237 -248,0 -541,-49 -669,109 -53,67 -56,261 -33,354 29,118 98,129 189,188z"/>
   <path class="fil0" d="M2307 4305c3,147 45,400 -92,451 -101,38 -416,19 -474,-40 -74,-74 -79,-363 49,-403 63,-19 423,-8 517,-8zm-498 557l416 0c72,-53 94,-37 138,-112 71,-118 46,-606 29,-670 -35,-137 -151,-174 -306,-176 -133,-1 -357,-12 -481,5l-2 68c217,48 789,-116 696,235 -238,0 -571,-49 -671,126 -36,63 -40,261 -17,341 38,137 87,119 198,183z"/>
   <path class="fil0" d="M2552 4862l560 0c84,-57 141,-60 162,-193 79,-502 -401,-306 -621,-374 -158,-518 476,-216 632,-329l-3 -51c-73,-31 -352,-13 -454,-11 -156,3 -258,35 -278,186 -56,436 308,280 589,346 60,108 85,309 -90,328 -146,17 -358,-18 -496,9l-1 89z"/>
   <path class="fil0" d="M1047 4862l437 0 -2 -89c-130,-25 -356,20 -464,-26 -133,-57 -98,-216 -98,-375 0,-386 -19,-387 337,-386 64,1 171,16 224,-20 -6,-78 13,-59 -69,-64l-354 5c-156,14 -223,75 -234,230 -9,120 -10,368 0,487 14,177 105,177 223,238z"/>
  </g>
 </g>
</svg>
