<?xml version="1.0" encoding="UTF-8"?>
<!DOCTYPE svg PUBLIC "-//W3C//DTD SVG 1.1//EN" "http://www.w3.org/Graphics/SVG/1.1/DTD/svg11.dtd">
<!-- Creator: CorelDRAW X8 -->
<svg xmlns="http://www.w3.org/2000/svg" xml:space="preserve" width="50mm" height="50mm" version="1.1" style="shape-rendering:geometricPrecision; text-rendering:geometricPrecision; image-rendering:optimizeQuality; fill-rule:evenodd; clip-rule:evenodd"
viewBox="0 0 5000 5000"
 xmlns:xlink="http://www.w3.org/1999/xlink">
 <defs>
  <style type="text/css">
   <![CDATA[
    .fil1 {fill:#FEFEFE}
    .fil2 {fill:#E84437}
    .fil0 {fill:#252424}
   ]]>
  </style>
   <clipPath id="id0">
    <rect x="239" y="227" width="4547" height="4555"/>
   </clipPath>
 </defs>
 <g id="图层_x0020_1">
  <metadata id="CorelCorpID_0Corel-Layer"/>
  <g style="clip-path:url(#id0)">
   <image x="239" y="227" width="4547" height="4555" xlink:href="case_death2_Images\case_death2_ImgID1.png"/>
  </g>
  <g id="_1442617793840">
   <path class="fil0" d="M3529 2822c128,-3 443,-19 543,13l-3 1814c-40,12 -498,13 -541,2 -12,-124 -4,-1155 -4,-1368 0,-92 -12,-393 5,-461zm-1284 961c129,-3 441,-14 547,12l-1 855c-37,9 -503,10 -541,1l-5 -868zm-1278 863l-4 -586c99,-16 457,-27 546,2 20,43 5,502 3,588 -42,11 -502,8 -545,-4zm-728 136l4547 0 0 -85c-53,-75 -123,-42 -263,-42 -106,0 -216,3 -321,-1l-1 -1955 -805 -7 -3 1958 -470 5 -1 -996 -805 -4 -2 995 -470 5 -1 -728 -810 0 -5 725 -446 -4c-28,-132 -5,-907 -4,-1103l0 -2802c0,-140 35,-437 -46,-516l-94 0 0 4555z"/>
   <path class="fil0" d="M3104 2735c-183,184 -157,168 -400,346 -473,347 -1161,655 -1798,591l8 -152c474,0 835,-85 1198,-261 265,-128 430,-247 648,-418 110,-87 276,-247 364,-348 189,-215 298,-351 454,-612 123,-205 406,-788 403,-1023 -32,-21 -34,-20 -44,-57l163 -67c29,27 99,118 117,153 -104,108 -51,-43 -132,239 -75,264 -201,547 -335,775 -161,274 -382,564 -602,795 -16,16 -29,23 -44,39zm564 -1854l163 58c-12,385 -543,1186 -802,1468l-288 279c-37,37 -62,59 -102,93 -243,208 -611,410 -997,519 -735,207 -845,-71 -869,273 -3,49 -6,133 7,179 16,58 70,57 136,57 765,3 1400,-243 1962,-696l392 -361c32,-34 59,-66 86,-101l176 -205c31,-36 57,-67 88,-106 141,-176 326,-518 416,-727 39,-91 74,-179 108,-273 32,-87 75,-197 97,-285 53,9 256,94 197,-63 -13,-35 -203,-308 -225,-335 -120,-150 -232,-1 -452,88 -87,36 -94,29 -93,138z"/>
   <path class="fil1" d="M3529 2822c-17,68 -5,369 -5,461 0,213 -8,1244 4,1368 43,11 501,10 541,-2l3 -1814c-100,-32 -415,-16 -543,-13z"/>
   <path class="fil0" d="M1919 713c-85,15 -168,12 -256,32 -65,14 -168,48 -202,91l24 67c-40,-13 -102,-75 -123,-106 -32,-47 -17,-116 -53,-176 -63,-102 -255,-69 -331,6 -72,71 -107,263 -9,326 38,24 121,31 172,56 49,24 93,69 114,123l-71 -26c-109,188 -84,230 -118,464 -178,60 -173,-68 -306,-2 -202,101 -104,459 121,443 151,-12 83,-126 247,-151 33,30 44,60 70,100 51,81 179,240 277,256l54 -100c-63,-65 -132,-98 -187,-173 -21,-30 -50,-72 -69,-108 -22,-41 -28,-96 -52,-136 -63,4 -151,30 -208,46 -109,30 -71,19 -122,133 -98,-8 -144,-105 -76,-185 84,-8 65,15 101,49 87,3 203,-46 293,-63 20,-172 -49,-134 44,-396 15,-41 26,-97 48,-118 48,54 5,31 -22,164l121 31c16,-35 19,-57 41,-92 20,-32 36,-54 49,-93 -21,-35 -236,-248 -291,-300 -59,-54 -68,-10 -154,-31 -10,-105 45,-184 154,-146 25,136 -68,56 125,247l202 193c40,-12 53,-26 86,-46 36,-21 63,-27 98,-44l-46 -126c-120,31 -91,71 -148,27 13,-12 -5,-2 23,-15 7,-4 19,-8 25,-9 22,-8 38,-13 57,-19 266,-94 172,-37 404,-51 17,-37 46,-161 58,-207 39,-149 -68,-83 -34,-205 77,-41 169,4 179,88 -68,70 -92,-22 -130,123 -16,59 -46,156 -47,216 136,69 134,5 326,207 33,36 54,69 89,100l101 -51c-15,-74 -104,-165 -148,-200 -56,-46 -160,-102 -208,-149 17,-164 140,-95 149,-245 14,-249 -347,-313 -439,-130 -74,147 78,158 -2,311z"/>
   <path class="fil2" d="M3937 801c10,37 12,36 44,57 3,235 -280,818 -403,1023 -156,261 -265,397 -454,612 -88,101 -254,261 -364,348 -218,171 -383,290 -648,418 -363,176 -724,261 -1198,261l-8 152c637,64 1325,-244 1798,-591 243,-178 217,-162 400,-346 15,-16 28,-23 44,-39 220,-231 441,-521 602,-795 134,-228 260,-511 335,-775 81,-282 28,-131 132,-239 -18,-35 -88,-126 -117,-153l-163 67z"/>
   <path class="fil1" d="M2250 4651c38,9 504,8 541,-1l1 -855c-106,-26 -418,-15 -547,-12l5 868z"/>
   <path class="fil1" d="M967 4646c43,12 503,15 545,4 2,-86 17,-545 -3,-588 -89,-29 -447,-18 -546,-2l4 586z"/>
   <path class="fil0" d="M2379 1988c24,50 71,94 109,130 70,66 89,40 186,59 13,87 -34,185 -119,152 -55,-31 -7,-187 -216,-299 -150,63 -118,144 -492,177l-5 128c104,-3 180,-8 272,-38 84,-28 150,-82 236,-82 59,94 20,32 42,134 54,255 524,70 410,-215 -52,-132 -184,-66 -238,-126 -19,-50 53,-170 75,-228 31,-86 44,-181 38,-283l-122 1c-27,356 -98,321 -176,490z"/>
   <path class="fil0" d="M2423 1206c-22,-28 -38,-73 -84,-114l-86 73c12,54 77,141 101,198 36,-5 387,-92 418,-110 34,-20 6,-22 66,-111 135,27 95,156 87,170 -16,25 -46,18 -80,15 -47,-69 -92,-49 -228,-9 -82,24 -163,45 -250,63 0,56 -8,228 43,247l94 9 8 -145c33,-23 135,-55 184,-61 99,-14 116,41 210,35 335,-23 100,-628 -152,-426 -54,43 -47,141 -331,166z"/>
   <path class="fil0" d="M1443 1985c29,36 74,66 116,86 -31,292 -118,273 -159,324 -107,130 -17,254 103,302 135,53 296,18 313,-125 15,-117 -48,-108 -36,-211 6,-55 35,-139 49,-196l160 -12c6,-40 -7,-82 -15,-122l-242 0 -70 262c-78,279 42,122 13,276 -92,40 -160,16 -180,-73 43,-52 77,-39 102,-65 22,-23 107,-347 108,-427 -63,-24 -120,-72 -179,-101l-83 82z"/>
   <path class="fil0" d="M1941 1106c78,-43 115,96 40,118 -74,23 -138,-64 -40,-118zm-18 -138c-258,48 -194,436 74,389 104,-18 171,-109 154,-232 -15,-99 -109,-180 -228,-157z"/>
   <path class="fil0" d="M1544 1674c-99,8 -120,-100 -54,-129 40,-17 77,7 84,39 9,39 -17,73 -30,90zm-82 -254c-66,20 -91,32 -119,80 -28,47 -35,97 -20,157 24,98 114,175 247,138 244,-68 150,-451 -108,-375z"/>
   <path class="fil0" d="M2051 1784c-13,-55 117,-131 133,-31 7,43 -17,76 -50,82 -38,6 -78,-25 -83,-51zm18 -204c-253,59 -155,451 106,380 86,-24 168,-129 141,-246 -22,-93 -128,-162 -247,-134z"/>
   <path class="fil1" d="M2051 1784c5,26 45,57 83,51 33,-6 57,-39 50,-82 -16,-100 -146,-24 -133,31z"/>
   <path class="fil1" d="M1941 1106c-98,54 -34,141 40,118 75,-22 38,-161 -40,-118z"/>
   <path class="fil1" d="M1544 1674c13,-17 39,-51 30,-90 -7,-32 -44,-56 -84,-39 -66,29 -45,137 54,129z"/>
  </g>
 </g>
</svg>
