<?xml version="1.0" encoding="UTF-8"?>
<!DOCTYPE svg PUBLIC "-//W3C//DTD SVG 1.1//EN" "http://www.w3.org/Graphics/SVG/1.1/DTD/svg11.dtd">
<!-- Creator: CorelDRAW X8 -->
<svg xmlns="http://www.w3.org/2000/svg" xml:space="preserve" width="50mm" height="50mm" version="1.1" style="shape-rendering:geometricPrecision; text-rendering:geometricPrecision; image-rendering:optimizeQuality; fill-rule:evenodd; clip-rule:evenodd"
viewBox="0 0 5000 5000"
 xmlns:xlink="http://www.w3.org/1999/xlink">
 <defs>
  <style type="text/css">
   <![CDATA[
    .fil2 {fill:#F08519}
    .fil1 {fill:#242424}
    .fil3 {fill:#787878}
    .fil0 {fill:#FEFEFE}
   ]]>
  </style>
   <clipPath id="id0">
    <rect x="225" y="227" width="4602" height="4533"/>
   </clipPath>
 </defs>
 <g id="图层_x0020_1">
  <metadata id="CorelCorpID_0Corel-Layer"/>
  <g style="clip-path:url(#id0)">
   <image x="225" y="227" width="4602" height="4533" xlink:href="case_Images\case_ImgID1.png"/>
  </g>
  <path class="fil0" d="M1479 3301c-547,181 -843,154 -842,717 1,158 -10,355 1,507l3047 0c12,-121 14,-624 -9,-724 -83,-352 -410,-357 -659,-429 -114,-34 -170,-94 -240,-36 -525,436 -362,366 -622,86 -3,2 -8,6 -9,8l-99 118c-125,162 -101,146 -568,-247z"/>
  <path class="fil1" d="M1479 3301c467,393 443,409 568,247l99 -118c1,-2 6,-6 9,-8 260,280 97,350 622,-86 70,-58 126,2 240,36 249,72 576,77 659,429 23,100 21,603 9,724l-3047 0c-11,-152 0,-349 -1,-507 -1,-563 295,-536 842,-717zm905 201c-47,-47 -104,-112 -134,-178l384 -181 78 84c-32,43 -111,97 -157,136 -59,49 -114,100 -171,139zm-791 -275c24,-40 37,-43 61,-84 119,31 282,130 399,186l-129 170c-103,-67 -248,-190 -331,-272zm142 -198c24,-101 40,-121 41,-237 131,55 210,108 379,108 125,0 296,-51 371,-110l44 240c-41,35 -367,204 -417,206 -40,1 -351,-157 -418,-207zm-405 -1201l62 51 14 246c-161,-36 -192,-203 -76,-297zm1571 293l14 -326c75,27 126,60 126,163 1,91 -60,149 -140,163zm-1340 -803c63,54 130,144 165,245 44,124 -23,246 -149,251 -118,4 -205,-100 -174,-227 28,-111 113,-194 158,-269zm202 -67c73,13 131,44 218,57 90,14 182,15 271,25 383,44 555,215 536,600 -9,202 6,342 -85,506 -114,209 -420,439 -764,295 -302,-126 -414,-341 -419,-760 24,-53 -9,-14 42,-35 1,0 444,-54 260,-456 -47,-104 -74,-91 -59,-232zm-411 144c-26,-286 68,-154 136,-319 55,-134 28,-45 114,-116 104,-87 -67,-251 328,-364 605,-173 1198,276 1033,901 -15,59 -28,128 -70,170 -161,-541 -718,-418 -988,-498 -151,-46 -236,-206 -258,34 -151,-101 -145,28 -295,192zm24 -360c-151,151 -240,-60 -79,-198 53,45 92,111 79,198zm119 -153c-125,-55 -123,-375 -325,-91 -212,296 35,393 69,425 -26,179 22,330 42,499 -94,47 -170,170 -125,336 40,148 119,153 255,204 53,154 57,210 145,334 51,71 92,58 101,144 74,713 -919,363 -1111,996 -36,121 -47,797 -16,905 189,35 3207,18 3258,-6 53,-90 27,-801 -11,-912 -209,-603 -960,-268 -1106,-790 -69,-245 30,-265 89,-347 88,-125 86,-173 137,-324 80,-33 107,-23 168,-80 161,-151 116,-328 -33,-464 11,-114 71,-226 84,-362 34,-338 -187,-655 -480,-811 -197,-105 -459,-134 -701,-69 -459,125 -329,280 -440,413z"/>
  <path class="fil0" d="M2252 1333c-89,-10 -181,-11 -271,-25 -87,-13 -145,-44 -218,-57 -15,141 12,128 59,232 184,402 -259,456 -260,456 -51,21 -18,-18 -42,35 5,419 117,634 419,760 344,144 650,-86 764,-295 91,-164 76,-304 85,-506 19,-385 -153,-556 -536,-600z"/>
  <path class="fil0" d="M1352 1395c150,-164 144,-293 295,-192 22,-240 107,-80 258,-34 270,80 827,-43 988,498 42,-42 55,-111 70,-170 165,-625 -428,-1074 -1033,-901 -395,113 -224,277 -328,364 -86,71 -59,-18 -114,116 -68,165 -162,33 -136,319z"/>
  <path class="fil1" d="M4221 2304c170,89 231,334 69,486 -250,234 -650,-85 -471,-373 71,-115 124,-57 122,-244l0 -1467c8,-99 88,-195 199,-141 92,45 77,175 77,288 -1,450 -29,1015 4,1451zm-560 313c24,219 218,399 468,373 220,-24 411,-232 370,-488 -29,-181 -134,-229 -154,-275 -50,-121 43,-1502 -40,-1659 -44,-84 -138,-159 -276,-132 -267,51 -208,387 -208,648 0,286 0,572 0,857 0,71 3,146 1,216 -3,174 -194,172 -161,460z"/>
  <path class="fil0" d="M4030 964c160,-37 108,174 108,318 0,236 19,1267 -18,1352l-82 -1c-32,-75 -36,-1551 -8,-1669zm191 1340c-33,-436 -5,-1001 -4,-1451 0,-113 15,-243 -77,-288 -111,-54 -191,42 -199,141l0 1467c2,187 -51,129 -122,244 -179,288 221,607 471,373 162,-152 101,-397 -69,-486z"/>
  <path class="fil0" d="M1735 3029c67,50 378,208 418,207 50,-2 376,-171 417,-206l-44 -240c-75,59 -246,110 -371,110 -169,0 -248,-53 -379,-108 -1,116 -17,136 -41,237z"/>
  <path class="fil2" d="M4030 964c-28,118 -24,1594 8,1669l82 1c37,-85 18,-1116 18,-1352 0,-144 52,-355 -108,-318z"/>
  <path class="fil0" d="M1561 1318c-45,75 -130,158 -158,269 -31,127 56,231 174,227 126,-5 193,-127 149,-251 -35,-101 -102,-191 -165,-245z"/>
  <path class="fil0" d="M2384 3502c57,-39 112,-90 171,-139 46,-39 125,-93 157,-136l-78 -84 -384 181c30,66 87,131 134,178z"/>
  <path class="fil0" d="M1593 3227c83,82 228,205 331,272l129 -170c-117,-56 -280,-155 -399,-186 -24,41 -37,44 -61,84z"/>
  <path class="fil0" d="M2901 2121c80,-14 141,-72 140,-163 0,-103 -51,-136 -126,-163l-14 326z"/>
  <path class="fil1" d="M4596 1707c48,0 94,0 143,-4l1 -114 -267 -2 0 91c30,19 -55,32 123,29z"/>
  <path class="fil1" d="M4596 2037c48,-1 94,0 143,-4l1 -114 -267 -2 0 90c41,27 -53,14 56,30 3,0 60,0 67,0z"/>
  <path class="fil1" d="M4473 1348c41,27 -53,13 56,30l210 -4 1 -115 -267 -2 0 91z"/>
  <path class="fil0" d="M1330 1828c-116,94 -85,261 76,297l-14 -246 -62 -51z"/>
  <path class="fil0" d="M1376 1035c13,-87 -26,-153 -79,-198 -161,138 -72,349 79,198z"/>
  <path class="fil1" d="M4531 923l-34 2 -14 107 251 10 0 -101c-87,0 -140,11 -203,-18z"/>
  <path class="fil3" d="M4531 923c63,29 116,18 203,18l0 101 -251 -10 14 -107c-17,10 -50,-26 -23,116 75,26 189,18 273,9l-9 -126 -207 -1z"/>
 </g>
</svg>
