<?xml version="1.0" encoding="UTF-8"?>
<!DOCTYPE svg PUBLIC "-//W3C//DTD SVG 1.1//EN" "http://www.w3.org/Graphics/SVG/1.1/DTD/svg11.dtd">
<!-- Creator: CorelDRAW X8 -->
<svg xmlns="http://www.w3.org/2000/svg" xml:space="preserve" width="50mm" height="50mm" version="1.1" style="shape-rendering:geometricPrecision; text-rendering:geometricPrecision; image-rendering:optimizeQuality; fill-rule:evenodd; clip-rule:evenodd"
viewBox="0 0 5000 5000"
 xmlns:xlink="http://www.w3.org/1999/xlink">
 <defs>
  <style type="text/css">
   <![CDATA[
    .fil2 {fill:#FEFEFE}
    .fil1 {fill:#E74538}
    .fil3 {fill:#ED821B}
    .fil0 {fill:#252424}
   ]]>
  </style>
   <clipPath id="id0">
    <rect x="461" y="180" width="4140" height="4724"/>
   </clipPath>
 </defs>
 <g id="图层_x0020_1">
  <metadata id="CorelCorpID_0Corel-Layer"/>
  <g style="clip-path:url(#id0)">
   <image x="461" y="180" width="4140" height="4724" xlink:href="globe_Images\globe_ImgID1.png"/>
  </g>
  <g id="_1442622883328">
   <path class="fil0" d="M3045 4676c85,-168 212,-196 346,-602 62,13 119,52 171,83 66,41 114,53 141,121 -60,59 -221,185 -293,231 -86,57 -240,151 -365,167zm-1644 -424c44,-49 211,-158 298,-172 43,116 200,441 295,528 23,22 39,32 53,68 -154,-23 -573,-267 -646,-424zm431 -228c2,-2 4,-5 5,-4 1,2 4,-3 5,-3 35,-20 89,-33 127,-43 153,-42 339,-70 499,-72l0 851c-329,-36 -524,-436 -636,-729zm770 727l-1 -846c199,-8 501,48 662,109 -53,283 -370,736 -661,737zm1197 -601l-356 -211c7,-117 43,-225 60,-337 17,-111 14,-268 36,-370l256 -1c19,26 48,102 135,220 35,48 142,153 126,229 -27,120 -180,382 -257,470zm-2096 -824l170 234c31,40 160,204 206,205 90,1 335,-393 379,-442l11 446c-236,6 -475,63 -686,117 -30,-81 -99,-464 -80,-560zm1610 553c-73,2 -208,-38 -280,-56 -100,-24 -192,-42 -303,-48 -142,-7 -137,8 -135,-200 1,-111 3,-227 7,-338l764 -4c53,9 38,69 29,149 -27,235 -48,288 -82,497zm-2377 -646l625 0c4,138 12,239 33,370 16,103 57,248 61,344 -146,39 -243,150 -364,206 -18,-15 -21,-21 -35,-43 -178,-279 -314,-513 -320,-877zm3234 283c-99,-38 -269,-346 -301,-461 -70,-241 44,-438 284,-440 208,-2 371,201 303,425 -26,85 -84,191 -128,253l-158 223zm-2091 68c-74,-62 -186,-216 -242,-301 -66,-99 -137,-232 -176,-357 -100,-317 128,-604 426,-598 299,5 512,289 410,607 -53,165 -321,608 -418,649zm568 -1017c51,-20 250,-38 326,-53 53,-11 263,-79 303,-44 109,96 123,484 124,631l-799 -9c7,-103 45,-159 54,-253 9,-90 -26,-218 -8,-272zm854 128c70,-26 308,-312 362,-399 22,14 25,22 41,46 34,49 72,100 88,162l-100 73c-214,152 -188,300 -164,522 -55,2 -145,13 -190,-5l-37 -399zm-2567 405c-2,-92 -7,-84 41,-129 30,-29 47,-54 75,-85 24,-27 52,-62 77,-93 107,-132 100,-107 202,-289 52,-92 75,-206 91,-233l218 108c-28,98 -97,138 -123,269 -29,143 -6,205 27,330 6,24 15,60 18,85 4,45 -1,37 -48,37l-578 0zm1670 -1521c142,3 125,52 174,153 126,257 354,527 384,599 -152,41 -385,102 -561,92l3 -844zm-738 653c19,-204 348,-624 602,-648l-1 748c-38,-12 -92,-49 -126,-69 -203,-118 -312,-61 -475,-31zm-930 573c-111,-155 -259,-312 -315,-533 -68,-269 79,-480 349,-462 237,17 385,242 301,491 -44,130 -252,479 -335,504zm761 -552c-83,-6 -306,-127 -271,-219 18,-46 228,-200 291,-220 81,151 134,99 86,207 -35,78 -78,157 -106,232zm1804 260c-122,-92 -324,-389 -415,-529 -118,-182 -245,-403 -319,-621 -189,-554 223,-1050 734,-1054 520,-3 922,509 733,1061 -130,379 -440,857 -733,1143zm-1614 -721c-53,-15 -91,-78 -122,-121 -103,-138 -197,-274 -252,-443 -91,-274 96,-511 346,-523 262,-12 457,242 378,514 -28,97 -105,232 -156,310 -87,133 -110,151 -194,263zm1663 -1612l-150 0c-28,13 -169,33 -221,50 -368,126 -650,565 -584,983 9,57 49,167 39,216l-349 36c79,-249 193,-412 19,-664 -105,-154 -324,-292 -602,-202 -185,60 -358,260 -349,512 5,124 53,235 103,326 36,67 143,228 156,269 -42,27 -85,56 -127,90 -27,21 -97,84 -126,94 -58,-54 -66,-100 -192,-163 -250,-125 -598,-15 -683,287 -57,199 34,427 120,564 205,329 201,177 196,506 -6,446 122,810 327,1087 185,250 449,468 802,612 396,161 806,149 1205,8 424,-149 776,-466 943,-826l105 -251c15,-28 199,-242 295,-408 80,-139 166,-385 90,-568 -70,-167 -219,-234 -439,-262 -21,-81 -159,-287 -157,-313 6,-96 839,-984 217,-1679 -250,-280 -579,-277 -638,-304z"/>
   <path class="fil1" d="M4192 1137c-21,177 -88,367 -216,474 -465,391 -1222,82 -1164,-571 32,-365 335,-669 739,-637 349,28 686,346 641,734zm-691 1376c293,-286 603,-764 733,-1143 189,-552 -213,-1064 -733,-1061 -511,4 -923,500 -734,1054 74,218 201,439 319,621 91,140 293,437 415,529z"/>
   <path class="fil0" d="M3433 541c336,-67 582,203 618,486 44,347 -180,581 -476,624 -664,96 -942,-951 -142,-1110zm759 596c45,-388 -292,-706 -641,-734 -404,-32 -707,272 -739,637 -58,653 699,962 1164,571 128,-107 195,-297 216,-474z"/>
   <path class="fil2" d="M1291 4153c121,-56 218,-167 364,-206 -4,-96 -45,-241 -61,-344 -21,-131 -29,-232 -33,-370l-625 0c6,364 142,598 320,877 14,22 17,28 35,43z"/>
   <path class="fil2" d="M3313 3879c34,-209 55,-262 82,-497 9,-80 24,-140 -29,-149l-764 4c-4,111 -6,227 -7,338 -2,208 -7,193 135,200 111,6 203,24 303,48 72,18 207,58 280,56z"/>
   <path class="fil2" d="M2647 2567c-18,54 17,182 8,272 -9,94 -47,150 -54,253l799 9c-1,-147 -15,-535 -124,-631 -40,-35 -250,33 -303,44 -76,15 -275,33 -326,53z"/>
   <path class="fil2" d="M3432 708c38,-71 -49,-159 123,-134 16,30 20,108 23,147 96,15 162,58 209,112 82,-11 48,-42 159,-23 49,136 -66,104 -69,172 -2,29 10,85 11,121 0,41 -6,78 -8,118 45,46 83,53 67,150 -66,20 -101,-4 -157,-19 -71,70 -72,101 -211,125l-23 138c-136,12 -103,-3 -117,-121 -40,-21 -84,-40 -124,-61 -45,-24 -71,-54 -110,-78 -11,-2 -127,71 -156,-12 -22,-64 56,-90 86,-113 -2,-41 -12,-84 -12,-127 -1,-44 8,-90 9,-136 -29,-29 -118,-53 -79,-135 30,-63 133,-1 180,7 96,-122 106,-72 188,-122l11 -9zm1 -167c-800,159 -522,1206 142,1110 296,-43 520,-277 476,-624 -36,-283 -282,-553 -618,-486z"/>
   <path class="fil2" d="M2602 4751c291,-1 608,-454 661,-737 -161,-61 -463,-117 -662,-109l1 846z"/>
   <path class="fil2" d="M3799 4150c77,-88 230,-350 257,-470 16,-76 -91,-181 -126,-229 -87,-118 -116,-194 -135,-220l-256 1c-22,102 -19,259 -36,370 -17,112 -53,220 -60,337l356 211z"/>
   <path class="fil2" d="M1832 4024c112,293 307,693 636,729l0 -851c-160,2 -346,30 -499,72 -38,10 -92,23 -127,43 -1,0 -4,5 -5,3 -1,-1 -3,2 -5,4z"/>
   <path class="fil0" d="M3249 1120c-20,-147 106,-269 235,-280 151,-14 258,109 276,241 20,155 -100,259 -236,273 -149,16 -257,-105 -275,-234zm183 -412l-11 9c-82,50 -92,0 -188,122 -47,-8 -150,-70 -180,-7 -39,82 50,106 79,135 -1,46 -10,92 -9,136 0,43 10,86 12,127 -30,23 -108,49 -86,113 29,83 145,10 156,12 39,24 65,54 110,78 40,21 84,40 124,61 14,118 -19,133 117,121l23 -138c139,-24 140,-55 211,-125 56,15 91,39 157,19 16,-97 -22,-104 -67,-150 2,-40 8,-77 8,-118 -1,-36 -13,-92 -11,-121 3,-68 118,-36 69,-172 -111,-19 -77,12 -159,23 -47,-54 -113,-97 -209,-112 -3,-39 -7,-117 -23,-147 -172,-25 -85,63 -123,134z"/>
   <path class="fil1" d="M2035 2411c213,-38 387,137 409,317 27,222 -132,384 -318,410 -447,64 -603,-637 -91,-727zm44 1173c97,-41 365,-484 418,-649 102,-318 -111,-602 -410,-607 -298,-6 -526,281 -426,598 39,125 110,258 176,357 56,85 168,239 242,301z"/>
   <path class="fil2" d="M934 3100l578 0c47,0 52,8 48,-37 -3,-25 -12,-61 -18,-85 -33,-125 -56,-187 -27,-330 26,-131 95,-171 123,-269l-218 -108c-16,27 -39,141 -91,233 -102,182 -95,157 -202,289 -25,31 -53,66 -77,93 -28,31 -45,56 -75,85 -48,45 -43,37 -41,129z"/>
   <path class="fil2" d="M2601 2423c176,10 409,-51 561,-92 -30,-72 -258,-342 -384,-599 -49,-101 -32,-150 -174,-153l-3 844z"/>
   <path class="fil1" d="M1831 793c187,-27 332,92 349,259 19,189 -101,321 -265,344 -411,56 -495,-543 -84,-603zm56 999c84,-112 107,-130 194,-263 51,-78 128,-213 156,-310 79,-272 -116,-526 -378,-514 -250,12 -437,249 -346,523 55,169 149,305 252,443 31,43 69,106 122,121z"/>
   <path class="fil2" d="M1866 2232c163,-30 272,-87 475,31 34,20 88,57 126,69l1 -748c-254,24 -583,444 -602,648z"/>
   <path class="fil0" d="M1853 2813c-56,-308 415,-379 454,-76 41,322 -401,366 -454,76zm182 -402c-512,90 -356,791 91,727 186,-26 345,-188 318,-410 -22,-180 -196,-355 -409,-317z"/>
   <path class="fil1" d="M883 1878c381,-86 499,488 127,570 -386,84 -485,-490 -127,-570zm53 927c83,-25 291,-374 335,-504 84,-249 -64,-474 -301,-491 -270,-18 -417,193 -349,462 56,221 204,378 315,533z"/>
   <path class="fil0" d="M1847 921c208,-55 294,312 53,343 -205,26 -314,-273 -53,-343zm-16 -128c-411,60 -327,659 84,603 164,-23 284,-155 265,-344 -17,-167 -162,-286 -349,-259z"/>
   <path class="fil3" d="M3492 1010c-23,13 -67,35 -90,30 -33,-8 -45,-50 -28,-80 37,-64 119,-53 118,50zm-243 110c18,129 126,250 275,234 136,-14 256,-118 236,-273 -18,-132 -125,-255 -276,-241 -129,11 -255,133 -235,280z"/>
   <path class="fil0" d="M785 2170c-15,-184 309,-244 314,-9 5,211 -297,205 -314,9zm98 -292c-358,80 -259,654 127,570 372,-82 254,-656 -127,-570z"/>
   <path class="fil2" d="M1703 3326c-19,96 50,479 80,560 211,-54 450,-111 686,-117l-11 -446c-44,49 -289,443 -379,442 -46,-1 -175,-165 -206,-205l-170 -234z"/>
   <path class="fil0" d="M4134 2801c181,-36 226,236 46,268 -179,32 -238,-230 -46,-268zm-12 -134c-141,26 -265,126 -236,303 24,141 133,259 302,234 363,-53 270,-599 -66,-537z"/>
   <path class="fil2" d="M1853 2813c53,290 495,246 454,-76 -39,-303 -510,-232 -454,76z"/>
   <path class="fil2" d="M3501 2695l37 399c45,18 135,7 190,5 -24,-222 -50,-370 164,-522l100 -73c-16,-62 -54,-113 -88,-162 -16,-24 -19,-32 -41,-46 -54,87 -292,373 -362,399z"/>
   <path class="fil1" d="M4122 2667c336,-62 429,484 66,537 -169,25 -278,-93 -302,-234 -29,-177 95,-277 236,-303zm48 849l158 -223c44,-62 102,-168 128,-253 68,-224 -95,-427 -303,-425 -240,2 -354,199 -284,440 32,115 202,423 301,461z"/>
   <path class="fil2" d="M3045 4676c125,-16 279,-110 365,-167 72,-46 233,-172 293,-231 -27,-68 -75,-80 -141,-121 -52,-31 -109,-70 -171,-83 -134,406 -261,434 -346,602z"/>
   <path class="fil2" d="M1401 4252c73,157 492,401 646,424 -14,-36 -30,-46 -53,-68 -95,-87 -252,-412 -295,-528 -87,14 -254,123 -298,172z"/>
   <path class="fil2" d="M1697 2253c28,-75 71,-154 106,-232 48,-108 -5,-56 -86,-207 -63,20 -273,174 -291,220 -35,92 188,213 271,219z"/>
   <path class="fil2" d="M1847 921c-261,70 -152,369 53,343 241,-31 155,-398 -53,-343z"/>
   <path class="fil2" d="M785 2170c17,196 319,202 314,-9 -5,-235 -329,-175 -314,9z"/>
   <path class="fil2" d="M4134 2801c-192,38 -133,300 46,268 180,-32 135,-304 -46,-268z"/>
   <path class="fil0" d="M3492 1010c1,-103 -81,-114 -118,-50 -17,30 -5,72 28,80 23,5 67,-17 90,-30z"/>
  </g>
 </g>
</svg>
