<?xml version="1.0" encoding="UTF-8"?>
<!DOCTYPE svg PUBLIC "-//W3C//DTD SVG 1.1//EN" "http://www.w3.org/Graphics/SVG/1.1/DTD/svg11.dtd">
<!-- Creator: CorelDRAW X8 -->
<svg xmlns="http://www.w3.org/2000/svg" xml:space="preserve" width="50mm" height="50mm" version="1.1" style="shape-rendering:geometricPrecision; text-rendering:geometricPrecision; image-rendering:optimizeQuality; fill-rule:evenodd; clip-rule:evenodd"
viewBox="0 0 5000 5000"
 xmlns:xlink="http://www.w3.org/1999/xlink">
 <defs>
  <style type="text/css">
   <![CDATA[
    .fil0 {fill:#FEFEFE}
    .fil3 {fill:#F08519}
    .fil4 {fill:#E95F23}
    .fil2 {fill:#1A9FDB}
    .fil1 {fill:#252424}
   ]]>
  </style>
   <clipPath id="id0">
    <rect x="153" y="-122" width="4801" height="4826"/>
   </clipPath>
 </defs>
 <g id="图层_x0020_1">
  <metadata id="CorelCorpID_0Corel-Layer"/>
  <g style="clip-path:url(#id0)">
   <image x="153" y="-122" width="4801" height="4826" xlink:href="11312-mobility-288b5b60-353c-4958-86a3-b16b866aa358_Images\11312-mobility-288b5b60-353c-4958-86a3-b16b866aa358_ImgID1.png"/>
  </g>
  <g id="_1442615649264">
   <path class="fil0" d="M2043 3434c159,-33 404,-10 574,-10 117,0 490,-26 565,20 64,40 52,153 47,241 -13,244 6,398 0,604 -3,88 5,226 -95,210 -73,-58 -57,-332 -55,-439 4,-160 14,-339 2,-497 -171,-15 -405,-2 -582,-2 -96,0 -192,0 -288,0 -131,1 -187,22 -168,-127zm498 -729c104,-28 376,-25 492,-17 96,6 151,1 171,91 18,76 17,418 4,493 -12,73 -100,78 -176,83 -116,8 -397,12 -494,-20 -31,-76 -37,-563 3,-630zm-793 1284c-111,-1 -246,-1 -353,-19 -117,-20 -171,-65 -195,-177 -38,-180 -15,-524 -14,-723 1,-233 123,-379 347,-391 254,-13 298,180 478,260 100,44 219,15 317,55 143,60 203,373 -125,388 -101,5 -254,10 -340,-24 -85,-35 -170,-99 -225,-148 -95,-86 -5,-181 101,-109 69,47 126,122 232,140 106,18 241,12 324,-26 5,-221 -191,-28 -371,-155 -78,-54 -228,-200 -288,-228 -157,-73 -288,49 -309,183 -19,126 -5,374 -5,512 0,202 -29,320 203,323 158,2 347,-33 474,41 36,22 238,215 272,252 28,31 38,43 66,70 111,106 127,162 228,135 -2,-111 -182,-274 -266,-350 -85,-77 -268,-273 -325,-293 -107,-38 -247,12 -372,-35l0 -92c91,-32 235,-33 340,-20 174,23 237,130 335,224 33,31 62,62 96,91 62,53 129,121 185,179 56,57 133,111 143,229 10,118 -48,201 -145,217 -189,30 -341,-220 -438,-293 -51,48 -108,383 -377,266 -83,-36 -124,-120 -95,-230 24,-92 84,-177 102,-252zm-37 -1904c366,-80 466,514 82,567 -344,47 -485,-478 -82,-567zm2343 2463c-12,-32 -140,-203 -169,-241 -174,-230 -366,-517 -401,-816 -41,-352 167,-644 451,-763 111,-46 218,-57 350,-56 3,-174 17,-113 -167,-299l-1286 -1279c-89,-87 -137,-142 -236,-230 -43,-38 -70,-80 -124,-106 -45,66 -416,423 -520,529l-515 527c-29,30 -61,55 -91,86l-348 347c-31,30 -55,53 -86,83 -237,233 -209,226 -209,486l0 1041c0,219 -12,479 2,693 552,-12 1121,3 1675,4 557,1 1118,5 1674,-6z"/>
   <path class="fil1" d="M4217 4502c-58,-38 -270,-330 -319,-402 -93,-141 -183,-298 -244,-475 -146,-422 160,-813 555,-819 452,-6 704,344 568,806 -56,193 -145,330 -239,482 -47,76 -100,147 -152,211 -29,36 -52,63 -81,97 -28,33 -57,75 -88,100zm-163 46c-556,11 -1117,7 -1674,6 -554,-1 -1123,-16 -1675,-4 -14,-214 -2,-474 -2,-693l0 -1041c0,-260 -28,-253 209,-486 31,-30 55,-53 86,-83l348 -347c30,-31 62,-56 91,-86l515 -527c104,-106 475,-463 520,-529 54,26 81,68 124,106 99,88 147,143 236,230l1286 1279c184,186 170,125 167,299 -132,-1 -239,10 -350,56 -284,119 -492,411 -451,763 35,299 227,586 401,816 29,38 157,209 169,241zm900 -1133l0 -122c-24,-51 -7,-209 -169,-402 -78,-92 -228,-143 -363,-203 1,-63 7,-176 -17,-229 -22,-49 -204,-197 -249,-243 -20,-19 -35,-44 -56,-62l-188 -184c-48,-49 -80,-80 -123,-123 -334,-334 -642,-653 -985,-988 -83,-82 -165,-165 -257,-243 -54,-46 -73,-23 -151,40l-246 245c-137,153 -459,458 -619,617 -166,165 -327,324 -494,488 -77,76 -163,169 -243,248 -43,43 -80,79 -124,122 -54,54 -83,54 -95,159 -47,446 3,1003 -10,1449 -4,161 -11,331 -3,491 10,207 9,226 269,220 798,-19 1651,-9 2455,-9 164,0 327,0 491,0 160,0 337,14 491,8 248,-8 96,-125 198,-275 71,-102 144,-178 215,-284 69,-104 117,-199 169,-323 24,-57 46,-119 62,-183 11,-42 33,-194 42,-214z"/>
   <path class="fil1" d="M1791 4345c-29,-98 61,-264 115,-344l101 100c-65,152 -76,259 -216,244zm-43 -356c-18,75 -78,160 -102,252 -29,110 12,194 95,230 269,117 326,-218 377,-266 97,73 249,323 438,293 97,-16 155,-99 145,-217 -10,-118 -87,-172 -143,-229 -56,-58 -123,-126 -185,-179 -34,-29 -63,-60 -96,-91 -98,-94 -161,-201 -335,-224 -105,-13 -249,-12 -340,20l0 92c125,47 265,-3 372,35 57,20 240,216 325,293 84,76 264,239 266,350 -101,27 -117,-29 -228,-135 -28,-27 -38,-39 -66,-70 -34,-37 -236,-230 -272,-252 -127,-74 -316,-39 -474,-41 -232,-3 -203,-121 -203,-323 0,-138 -14,-386 5,-512 21,-134 152,-256 309,-183 60,28 210,174 288,228 180,127 376,-66 371,155 -83,38 -218,44 -324,26 -106,-18 -163,-93 -232,-140 -106,-72 -196,23 -101,109 55,49 140,113 225,148 86,34 239,29 340,24 328,-15 268,-328 125,-388 -98,-40 -217,-11 -317,-55 -180,-80 -224,-273 -478,-260 -224,12 -346,158 -347,391 -1,199 -24,543 14,723 24,112 78,157 195,177 107,18 242,18 353,19z"/>
   <path class="fil2" d="M4195 3033c214,-20 382,153 398,345 20,223 -144,388 -345,408 -468,46 -589,-701 -53,-753zm22 1469c31,-25 60,-67 88,-100 29,-34 52,-61 81,-97 52,-64 105,-135 152,-211 94,-152 183,-289 239,-482 136,-462 -116,-812 -568,-806 -395,6 -701,397 -555,819 61,177 151,334 244,475 49,72 261,364 319,402z"/>
   <path class="fil1" d="M835 495c547,-112 713,733 158,840 -270,53 -454,-122 -502,-339 -52,-238 76,-446 344,-501zm-151 -118c-31,41 -128,87 -176,135 -46,47 -67,65 -98,131 -5,12 -7,17 -12,29l-16 29c-99,-12 -224,-114 -223,66 24,22 47,32 85,44l90 31c25,14 8,154 38,239 24,66 63,122 84,193 -41,36 -154,109 -117,203 16,20 86,9 130,-22 44,-30 41,-52 82,-87 135,27 94,106 433,110 23,92 27,224 149,188 14,-15 1,13 15,-23 24,-61 -20,-149 -24,-208 149,-50 242,-159 306,-295 77,14 135,44 216,19 37,-140 -66,-134 -173,-152 5,-326 -37,-250 -109,-452 37,-45 125,-98 108,-192 -71,-51 -169,55 -190,94 -63,-5 -127,-62 -201,-84 -85,-26 -168,-17 -256,-33l-58 -163c-136,-2 -125,55 -83,200z"/>
   <path class="fil3" d="M840 698c5,92 -40,210 -125,125 -76,-75 20,-139 125,-125zm-5 -203c-268,55 -396,263 -344,501 48,217 232,392 502,339 555,-107 389,-952 -158,-840z"/>
   <path class="fil1" d="M3855 504c-63,425 -676,334 -622,-70 20,-154 165,-301 346,-274 157,23 303,166 276,344zm-158 -626l-19 0c-45,39 -75,64 -88,145 -257,18 -204,55 -323,76 -31,-52 -101,-120 -174,-51 -12,90 52,109 82,151 -47,128 -74,140 -81,308l-144 58c4,206 99,65 195,100 7,6 61,166 204,203 -6,64 -36,119 -4,180 29,9 60,10 87,2 36,-26 43,-87 57,-130 63,-2 120,-2 175,-20 53,-18 94,-44 147,-59 38,21 115,124 173,46 27,-81 -40,-112 -69,-146 41,-139 73,-139 72,-323l128 -39c27,-167 -117,-98 -168,-96 -24,-54 -53,-92 -90,-129 -71,-70 -94,-62 -132,-90 5,-78 17,-143 -28,-186z"/>
   <path class="fil1" d="M4138 1630c-46,-296 440,-417 492,-65 47,325 -441,392 -492,65zm77 -374c-30,40 -119,50 -164,179 -88,-6 -82,-33 -152,21 -7,64 0,81 52,102 93,39 23,12 103,220 25,67 -28,58 -46,102 -20,47 23,90 55,100 48,15 69,-37 96,-53 31,-18 79,16 115,27 54,18 90,15 143,27 13,60 44,135 108,119 45,-43 28,-104 29,-165 116,-79 88,-47 163,-162 82,-1 62,23 155,-7l0 -93 -101 -39c-13,-40 -14,-90 -26,-134 -11,-44 -36,-91 -39,-132 48,-69 68,0 48,-139 -101,-22 -94,-7 -147,48 -55,-7 -64,-35 -212,-55 -41,-6 -35,-5 -49,-42 -50,-130 -175,-70 -131,76z"/>
   <path class="fil4" d="M3855 504c27,-178 -119,-321 -276,-344 -181,-27 -326,120 -346,274 -54,404 559,495 622,70z"/>
   <path class="fil1" d="M2660 2831l412 -4 -7 387 -404 -2 -1 -381zm-119 -126c-40,67 -34,554 -3,630 97,32 378,28 494,20 76,-5 164,-10 176,-83 13,-75 14,-417 -4,-493 -20,-90 -75,-85 -171,-91 -116,-8 -388,-11 -492,17z"/>
   <path class="fil1" d="M2211 3561c96,0 192,0 288,0 177,0 411,-13 582,2 12,158 2,337 -2,497 -2,107 -18,381 55,439 100,16 92,-122 95,-210 6,-206 -13,-360 0,-604 5,-88 17,-201 -47,-241 -75,-46 -448,-20 -565,-20 -170,0 -415,-23 -574,10 -19,149 37,128 168,127z"/>
   <path class="fil1" d="M4197 3171c137,-21 243,91 257,212 18,153 -83,254 -213,269 -286,34 -396,-426 -44,-481zm-2 -138c-536,52 -415,799 53,753 201,-20 365,-185 345,-408 -16,-192 -184,-365 -398,-345z"/>
   <path class="fil4" d="M4138 1630c51,327 539,260 492,-65 -52,-352 -538,-231 -492,65z"/>
   <path class="fil1" d="M1736 2220c184,-46 249,263 39,296 -169,26 -270,-238 -39,-296zm-25 -135c-403,89 -262,614 82,567 384,-53 284,-647 -82,-567z"/>
   <path class="fil0" d="M4197 3171c-352,55 -242,515 44,481 130,-15 231,-116 213,-269 -14,-121 -120,-233 -257,-212z"/>
   <polygon class="fil0" points="2661,3212 3065,3214 3072,2827 2660,2831 "/>
   <path class="fil0" d="M1736 2220c-231,58 -130,322 39,296 210,-33 145,-342 -39,-296z"/>
   <path class="fil0" d="M1791 4345c140,15 151,-92 216,-244l-101 -100c-54,80 -144,246 -115,344z"/>
   <path class="fil1" d="M840 698c-105,-14 -201,50 -125,125 85,85 130,-33 125,-125z"/>
  </g>
 </g>
</svg>
