<?xml version="1.0" encoding="UTF-8"?>
<!DOCTYPE svg PUBLIC "-//W3C//DTD SVG 1.1//EN" "http://www.w3.org/Graphics/SVG/1.1/DTD/svg11.dtd">
<!-- Creator: CorelDRAW X8 -->
<svg xmlns="http://www.w3.org/2000/svg" xml:space="preserve" width="50mm" height="50mm" version="1.1" style="shape-rendering:geometricPrecision; text-rendering:geometricPrecision; image-rendering:optimizeQuality; fill-rule:evenodd; clip-rule:evenodd"
viewBox="0 0 5000 5000"
 xmlns:xlink="http://www.w3.org/1999/xlink">
 <defs>
  <style type="text/css">
   <![CDATA[
    .fil0 {fill:#242424}
    .fil2 {fill:#F54233}
    .fil1 {fill:#FEFEFE}
   ]]>
  </style>
 </defs>
 <g id="图层_x0020_1">
  <metadata id="CorelCorpID_0Corel-Layer"/>
  <g id="_1442625714832">
   <path class="fil0" d="M1127 3576c40,-38 73,-86 117,-120l500 242c-20,45 -127,180 -172,226 -86,-39 -368,-278 -445,-348zm825 121c155,-60 433,-235 577,-265 18,47 44,69 73,112l-476 381c-39,-39 -157,-187 -174,-228zm-68 -531c261,-1 385,-124 527,-180 3,156 15,192 43,332 -121,40 -501,257 -585,279 -47,13 -342,-142 -428,-184l-136 -77c30,-138 52,-170 55,-333 75,30 137,81 224,111 96,35 187,52 300,52zm369 -246c-3,2 -8,6 -11,8l-165 81c-240,75 -397,12 -586,-83 332,-6 131,72 762,-6zm-1091 -360c-33,-139 -111,-340 -66,-587 67,124 51,95 59,268 4,91 19,237 7,319zm116 -471l1198 0 -43 651c-351,102 -786,136 -1131,-4l-24 -647zm1296 469c-1,-105 12,-216 18,-316 12,-181 -9,-152 64,-256 6,93 -3,214 -9,308l-43 217c-24,55 -17,31 -30,47zm219 -730c201,-10 266,360 -18,413l18 -413zm-1823 413c-255,-42 -256,-359 -13,-423l13 423zm134 -487c31,-71 130,-175 183,-268 67,-119 68,-196 113,-333 299,120 629,61 930,189 142,61 210,176 278,295 52,93 71,90 10,175 -35,48 -78,126 -128,151l-1253 0c-31,-63 -92,-142 -133,-209zm-87 -124c-77,-120 -154,-325 -115,-496 18,-83 56,-153 105,-206 74,-82 85,-65 175,-120 79,-49 38,-123 84,-229 30,-71 93,-128 152,-161 113,-64 347,-105 500,-105 570,0 976,413 997,850 7,148 -89,377 -165,450 -37,-39 -64,-100 -102,-156 -303,-445 -847,-265 -1154,-405 -91,-42 -76,-80 -183,-77 -70,120 -23,377 -267,631 -18,18 -14,15 -27,24zm-123 55c-3,3 -7,3 -9,8 -1,5 -7,6 -9,7 -96,68 -242,123 -222,366 15,182 144,280 321,304 40,207 91,328 204,456 113,129 50,402 -36,531 -182,274 -409,226 -714,274 -101,16 -244,28 -180,145 43,39 652,-89 769,-126 70,66 484,412 554,437 115,-34 188,-234 277,-292 95,73 169,261 277,292 57,-2 488,-404 589,-455 301,103 83,66 477,110 417,46 743,285 810,702 14,83 1,233 119,162 93,-89 -63,-504 -269,-707 -419,-411 -816,-190 -1114,-412 -175,-131 -215,-344 -201,-570 5,-91 50,-116 90,-173 94,-134 92,-212 149,-373 371,-64 452,-494 83,-673 220,-371 265,-641 8,-1034 -328,-501 -1084,-590 -1512,-359 -247,133 -203,359 -291,419 -43,29 -61,30 -106,68 -36,31 -53,52 -82,91 -45,64 -84,150 -102,245 -40,212 46,391 120,557z"/>
   <path class="fil1" d="M1017 1630c13,-9 9,-6 27,-24 244,-254 197,-511 267,-631 107,-3 92,35 183,77 307,140 851,-40 1154,405 38,56 65,117 102,156 76,-73 172,-302 165,-450 -21,-437 -427,-850 -997,-850 -153,0 -387,41 -500,105 -59,33 -122,90 -152,161 -46,106 -5,180 -84,229 -90,55 -101,38 -175,120 -49,53 -87,123 -105,206 -39,171 38,376 115,496z"/>
   <path class="fil1" d="M1104 1754c41,67 102,146 133,209l1253 0c50,-25 93,-103 128,-151 61,-85 42,-82 -10,-175 -68,-119 -136,-234 -278,-295 -301,-128 -631,-69 -930,-189 -45,137 -46,214 -113,333 -53,93 -152,197 -183,268z"/>
   <path class="fil2" d="M1302 2736c345,140 780,106 1131,4l43 -651 -1198 0 24 647z"/>
   <path class="fil1" d="M4281 2258c28,98 14,184 -1,278 60,57 99,37 93,137 -66,47 -77,30 -150,-14 -88,45 -111,110 -264,134l-23 161 -92 0c-19,-48 -17,-100 -13,-161 -141,-23 -153,-60 -249,-127 -90,35 -99,80 -153,21 -60,-76 25,-102 83,-129 -29,-151 -32,-141 -10,-300 -49,-42 -114,-40 -88,-114 27,-75 101,-27 150,-8 68,-57 124,-113 252,-147l18 -151 101 -6 18 148c189,64 148,74 271,152 64,-48 60,-53 143,-35 29,124 -22,88 -86,161zm-1016 -347c1,769 -47,680 370,1058l263 220 238 -201c47,-44 75,-60 122,-104 46,-44 84,-62 123,-103 181,-189 145,-440 150,-749 2,-111 28,-137 -61,-160 -55,-15 -124,-27 -183,-42 -126,-34 -224,-82 -337,-117 -99,-31 -313,87 -517,136 -64,16 -136,14 -168,62z"/>
   <path class="fil0" d="M3265 1911c32,-48 104,-46 168,-62 204,-49 418,-167 517,-136 113,35 211,83 337,117 59,15 128,27 183,42 89,23 63,49 61,160 -5,309 31,560 -150,749 -39,41 -77,59 -123,103 -47,44 -75,60 -122,104l-238 201 -263 -220c-417,-378 -369,-289 -370,-1058zm-125 -104c0,392 -60,728 142,1012 48,67 225,206 299,273 43,39 101,90 150,129 56,44 105,94 163,133 86,-42 588,-503 621,-542 199,-236 141,-682 141,-1031 -130,-25 -260,-53 -389,-89 -549,-155 -156,-184 -733,-3l-294 71c-68,13 -65,-1 -100,47z"/>
   <path class="fil1" d="M1884 3166c-113,0 -204,-17 -300,-52 -87,-30 -149,-81 -224,-111 -3,163 -25,195 -55,333l136 77c86,42 381,197 428,184 84,-22 464,-239 585,-279 -28,-140 -40,-176 -43,-332 -142,56 -266,179 -527,180z"/>
   <path class="fil0" d="M3797 2126c343,-126 550,402 184,533 -162,58 -312,-57 -352,-170 -62,-171 48,-319 168,-363zm484 132c64,-73 115,-37 86,-161 -83,-18 -79,-13 -143,35 -123,-78 -82,-88 -271,-152l-18 -148 -101 6 -18 151c-128,34 -184,90 -252,147 -49,-19 -123,-67 -150,8 -26,74 39,72 88,114 -22,159 -19,149 10,300 -58,27 -143,53 -83,129 54,59 63,14 153,-21 96,67 108,104 249,127 -4,61 -6,113 13,161l92 0 23 -161c153,-24 176,-89 264,-134 73,44 84,61 150,14 6,-100 -33,-80 -93,-137 15,-94 29,-180 1,-278z"/>
   <path class="fil1" d="M3723 2520c-14,-105 24,-113 108,-92 56,116 -5,171 -108,92zm263 -138c85,-74 117,63 81,103 -33,37 -127,24 -108,-67 16,-72 -5,-8 27,-36zm-173 -139c78,-70 143,34 99,85 -24,26 -81,31 -110,3 -19,-18 -19,-24 -15,-52 9,-69 0,-13 26,-36zm-16 -117c-120,44 -230,192 -168,363 40,113 190,228 352,170 366,-131 159,-659 -184,-533z"/>
   <path class="fil1" d="M1952 3697c17,41 135,189 174,228l476 -381c-29,-43 -55,-65 -73,-112 -144,30 -422,205 -577,265z"/>
   <path class="fil1" d="M1127 3576c77,70 359,309 445,348 45,-46 152,-181 172,-226l-500 -242c-44,34 -77,82 -117,120z"/>
   <path class="fil1" d="M970 2241l-13 -423c-243,64 -242,381 13,423z"/>
   <path class="fil1" d="M2775 2241c284,-53 219,-423 18,-413l-18 413z"/>
   <path class="fil1" d="M2253 2920c-631,78 -430,0 -762,6 189,95 346,158 586,83l165 -81c3,-2 8,-6 11,-8z"/>
   <path class="fil1" d="M1162 2560c12,-82 -3,-228 -7,-319 -8,-173 8,-144 -59,-268 -45,247 33,448 66,587z"/>
   <path class="fil1" d="M2574 2558c13,-16 6,8 30,-47l43 -217c6,-94 15,-215 9,-308 -73,104 -52,75 -64,256 -6,100 -19,211 -18,316z"/>
   <path class="fil0" d="M3723 2520c103,79 164,24 108,-92 -84,-21 -122,-13 -108,92z"/>
   <path class="fil0" d="M3813 2243c-26,23 -17,-33 -26,36 -4,28 -4,34 15,52 29,28 86,23 110,-3 44,-51 -21,-155 -99,-85z"/>
   <path class="fil0" d="M3986 2382c-32,28 -11,-36 -27,36 -19,91 75,104 108,67 36,-40 4,-177 -81,-103z"/>
  </g>
 </g>
</svg>
