<?xml version="1.0" encoding="UTF-8"?>
<!DOCTYPE svg PUBLIC "-//W3C//DTD SVG 1.1//EN" "http://www.w3.org/Graphics/SVG/1.1/DTD/svg11.dtd">
<!-- Creator: CorelDRAW X8 -->
<svg xmlns="http://www.w3.org/2000/svg" xml:space="preserve" width="50mm" height="50mm" version="1.1" style="shape-rendering:geometricPrecision; text-rendering:geometricPrecision; image-rendering:optimizeQuality; fill-rule:evenodd; clip-rule:evenodd"
viewBox="0 0 5000 5000"
 xmlns:xlink="http://www.w3.org/1999/xlink">
 <defs>
  <style type="text/css">
   <![CDATA[
    .fil3 {fill:#FEFEFE}
    .fil5 {fill:#E64539}
    .fil1 {fill:#FBEF12}
    .fil2 {fill:#1AA0DC}
    .fil4 {fill:#0E9C4B}
    .fil0 {fill:#252424}
   ]]>
  </style>
   <clipPath id="id0">
    <rect x="244" y="271" width="4479" height="4462"/>
   </clipPath>
 </defs>
 <g id="图层_x0020_1">
  <metadata id="CorelCorpID_0Corel-Layer"/>
  <g style="clip-path:url(#id0)">
   <image x="244" y="271" width="4479" height="4462" xlink:href="11312-vaccination_site-bf0f6136-fd84-419a-ae96-1592781feed7_Images\11312-vaccination_site-bf0f6136-fd84-419a-ae96-1592781feed7_ImgID1.png"/>
  </g>
  <g id="_1442615679152">
   <path class="fil0" d="M1852 3395l449 1c7,167 5,332 5,499 -1,152 10,343 -3,492l-455 -1 4 -991zm2169 1110c38,-31 91,-59 131,-88 48,-34 364,-278 388,-237 29,47 -65,88 -98,112 -66,47 -331,260 -391,264 -15,-17 -25,-23 -30,-51zm-75 -706c33,50 64,89 95,134 38,54 170,223 182,283l-34 19c-37,-12 -89,-94 -111,-127 -32,-49 -60,-92 -92,-137 -35,-49 -207,-248 -154,-281 46,-28 93,78 114,109zm-1648 712c-21,108 -85,81 -268,85 -455,12 -440,28 -442,-244 -2,-241 -14,-1006 5,-1173 5,-47 -2,-38 37,-48 194,-49 141,-36 203,-223l219 4c22,22 28,55 37,86 43,158 83,91 205,143l12 129c-103,0 -207,0 -310,0 -73,0 -234,-23 -259,36 -13,30 -19,1125 3,1167 35,69 181,38 256,36 101,-1 201,0 302,2zm-691 -1740c-11,-20 -10,-28 -13,-56 -28,-243 29,-190 233,-196 166,-5 301,-2 463,15 14,90 25,149 -2,239 -132,20 -562,28 -681,-2zm718 -674c149,-95 385,-284 518,-359 28,24 55,51 78,91l-42 36c-36,25 -107,87 -63,135 69,53 133,-30 188,-50 20,19 70,95 79,126 -36,15 -114,66 -148,91 -33,24 -116,80 -70,139 69,87 219,-107 300,-122 28,22 48,40 52,87 -26,17 -58,39 -91,61 -34,22 -51,50 -30,107 82,57 144,-37 207,-60 15,25 60,86 78,107 -61,98 -252,106 -223,264 165,18 191,-118 322,-144 15,44 38,65 55,102 -33,26 -62,45 -99,70 -37,24 -52,74 -17,119 53,25 156,-54 193,-74 28,22 81,90 95,134 -40,21 -102,67 -146,99 -31,22 -121,82 -78,139 64,84 231,-108 310,-129 17,29 36,48 49,88 -119,79 -128,90 -108,171 131,28 108,-42 193,-55 26,21 72,86 85,126l-34 25c-163,105 -357,259 -489,336 -99,-138 -199,-273 -297,-414 -116,-166 -846,-1151 -867,-1246zm-42 -312c70,-45 191,-153 280,-192 22,17 68,85 83,109 -33,44 -226,187 -296,207 -18,-45 -56,-74 -67,-124zm-795 -1514l-26 0c-58,46 -68,69 13,183 94,133 778,1085 815,1155 -39,47 -165,96 -167,161 -1,54 98,161 121,212 -51,97 -151,43 -13,230 36,49 139,183 155,238 -65,-25 -72,-52 -161,-54 -152,-5 -522,-21 -630,14 -119,38 -139,155 -132,300 7,162 88,182 229,211 -10,118 -106,70 -178,137 -62,57 -52,166 -52,261 0,177 -13,1155 10,1245 46,183 274,166 473,161 209,-5 420,37 473,-154 26,-94 13,-1072 13,-1252 0,-99 6,-205 -54,-262 -67,-66 -169,-12 -177,-146 264,-20 235,-168 220,-405 55,27 328,448 385,530 43,62 82,118 126,179 84,118 167,238 254,356 52,70 218,306 268,347 44,-12 84,-34 118,-56 36,-24 79,-61 110,-76l380 532c-180,145 -247,125 -119,315 90,133 139,83 343,-66 88,-64 359,-247 407,-304 72,-85 -113,-253 -130,-259 -78,0 -160,93 -223,119 -50,-45 -340,-464 -376,-541 83,-57 246,-120 185,-221 -136,-229 -405,-589 -560,-813 -124,-179 -249,-353 -379,-534 -65,-89 -122,-181 -185,-273 -158,-233 -129,-151 -266,-114 -50,-58 -66,-142 -137,-178 -86,-43 -142,64 -222,80 -27,-49 -75,-103 -115,-157l-671 -954c-67,-102 -38,-79 -125,-147z"/>
   <path class="fil0" d="M4034 1448c-51,37 -168,46 -243,43 -244,-11 -359,-255 -245,-535 30,12 77,54 93,81 -21,14 -48,33 -67,48 -4,71 22,101 92,100 20,-27 23,-49 42,-75 15,7 165,143 178,172 -30,26 -52,45 -31,105l6 13c59,18 83,-6 129,-20l46 68zm282 272c-72,45 -97,87 -224,131 -436,152 -966,-135 -999,-667 -14,-226 75,-389 173,-514 28,21 169,172 187,203l-41 85 -154 -25c-28,26 -44,43 -42,92 53,38 47,29 106,46 85,24 28,86 61,210 16,60 50,108 61,152 -19,18 -56,51 -72,70 -76,84 53,198 162,30 140,36 68,88 375,94 39,244 140,107 143,83 3,-20 -17,-88 -17,-127l103 -48c41,41 150,133 178,185zm-660 -856c126,-115 320,-61 423,34 123,116 133,336 59,439 -56,-20 -456,-419 -482,-473zm-287 -285c27,-59 145,-112 220,-137 814,-269 1274,705 828,1174 -88,-42 -117,-109 -187,-165 7,-38 45,-96 68,-118 65,21 100,20 162,6 5,-83 -9,-90 -75,-113 -128,-45 -34,-78 -104,-251 -82,-197 -86,-70 13,-200 30,-40 20,-68 13,-113 -124,-7 -131,44 -192,97 -237,-92 -2,-36 -329,-85 -38,-87 -21,-172 -140,-141 -30,64 0,105 2,179 -14,12 -69,46 -86,47 -54,1 -162,-140 -193,-180zm574 -308l-179 0c-24,11 -132,26 -172,38 -367,109 -645,452 -627,860 21,466 383,836 851,848 757,19 1189,-847 682,-1445 -234,-276 -492,-270 -555,-301z"/>
   <path class="fil1" d="M2325 2097c21,95 751,1080 867,1246 98,141 198,276 297,414 132,-77 326,-231 489,-336l34 -25c-13,-40 -59,-105 -85,-126 -85,13 -62,83 -193,55 -20,-81 -11,-92 108,-171 -13,-40 -32,-59 -49,-88 -79,21 -246,213 -310,129 -43,-57 47,-117 78,-139 44,-32 106,-78 146,-99 -14,-44 -67,-112 -95,-134 -37,20 -140,99 -193,74 -35,-45 -20,-95 17,-119 37,-25 66,-44 99,-70 -17,-37 -40,-58 -55,-102 -131,26 -157,162 -322,144 -29,-158 162,-166 223,-264 -18,-21 -63,-82 -78,-107 -63,23 -125,117 -207,60 -21,-57 -4,-85 30,-107 33,-22 65,-44 91,-61 -4,-47 -24,-65 -52,-87 -81,15 -231,209 -300,122 -46,-59 37,-115 70,-139 34,-25 112,-76 148,-91 -9,-31 -59,-107 -79,-126 -55,20 -119,103 -188,50 -44,-48 27,-110 63,-135l42 -36c-23,-40 -50,-67 -78,-91 -133,75 -369,264 -518,359z"/>
   <path class="fil0" d="M666 3395l431 4c5,291 9,728 -1,987l-435 1 5 -966 0 -26zm426 1118c-7,74 -23,76 -96,81 -119,9 -392,10 -498,-5 -66,-10 -98,-8 -103,-75 -21,-242 -25,-977 -12,-1177 14,-241 7,-187 116,-219 41,-12 73,-45 90,-80 20,-41 21,-92 44,-129l228 5c27,204 54,172 221,225 15,12 14,104 13,126 -78,13 -216,-1 -301,-1 -331,-3 -259,18 -255,631 1,113 -21,500 14,572 33,71 164,44 250,40 102,-5 189,1 289,6zm-691 -1740c-18,-44 -15,-100 -16,-148 -4,-136 46,-106 358,-109 376,-4 346,6 354,110 4,46 -3,94 -11,138 -100,44 -561,29 -685,9zm-157 -160l0 95c33,64 17,98 80,150 47,37 91,44 164,54 -4,155 -111,54 -185,153 -95,128 -9,807 -59,935l0 421c26,66 -6,220 141,272 98,34 278,27 392,27 358,-1 454,4 457,-376 2,-274 -9,-547 -10,-821 -2,-257 49,-449 -123,-502 -80,-25 -104,-15 -104,-110 163,-10 242,-86 234,-260 -14,-310 -199,-258 -471,-256 -151,1 -425,-48 -488,115l-19 74c-1,3 -1,5 -2,7 -1,3 -1,5 -2,7l-5 15z"/>
   <path class="fil0" d="M699 1373l348 0 1 -314 114 4 5 310 342 3 4 112 -347 3 -3 340c-39,11 -66,9 -113,6l-2 -346 -347 0 -2 -118zm221 -132l-347 5 -2 372 347 3 3 344 372 0 0 -348 348 0 -1 -372 -343 1 -5 -313 -370 0 -2 308z"/>
   <path class="fil2" d="M1848 4386l455 1c13,-149 2,-340 3,-492 0,-167 2,-332 -5,-499l-449 -1 -4 991z"/>
   <path class="fil3" d="M3369 579c31,40 139,181 193,180 17,-1 72,-35 86,-47 -2,-74 -32,-115 -2,-179 119,-31 102,54 140,141 327,49 92,-7 329,85 61,-53 68,-104 192,-97 7,45 17,73 -13,113 -99,130 -95,3 -13,200 70,173 -24,206 104,251 66,23 80,30 75,113 -62,14 -97,15 -162,-6 -23,22 -61,80 -68,118 70,56 99,123 187,165 446,-469 -14,-1443 -828,-1174 -75,25 -193,78 -220,137z"/>
   <path class="fil4" d="M666 3421l-5 966 435 -1c10,-259 6,-696 1,-987l-431 -4 0 26z"/>
   <path class="fil3" d="M4316 1720c-28,-52 -137,-144 -178,-185l-103 48c0,39 20,107 17,127 -3,24 -104,161 -143,-83 -307,-6 -235,-58 -375,-94 -109,168 -238,54 -162,-30 16,-19 53,-52 72,-70 -11,-44 -45,-92 -61,-152 -33,-124 24,-186 -61,-210 -59,-17 -53,-8 -106,-46 -2,-49 14,-66 42,-92l154 25 41 -85c-18,-31 -159,-182 -187,-203 -98,125 -187,288 -173,514 33,532 563,819 999,667 127,-44 152,-86 224,-131z"/>
   <path class="fil3" d="M1092 4513c-100,-5 -187,-11 -289,-6 -86,4 -217,31 -250,-40 -35,-72 -13,-459 -14,-572 -4,-613 -76,-634 255,-631 85,0 223,14 301,1 1,-22 2,-114 -13,-126 -167,-53 -194,-21 -221,-225l-228 -5c-23,37 -24,88 -44,129 -17,35 -49,68 -90,80 -109,32 -102,-22 -116,219 -13,200 -9,935 12,1177 5,67 37,65 103,75 106,15 379,14 498,5 73,-5 89,-7 96,-81z"/>
   <path class="fil3" d="M2298 4511c-101,-2 -201,-3 -302,-2 -75,2 -221,33 -256,-36 -22,-42 -16,-1137 -3,-1167 25,-59 186,-36 259,-36 103,0 207,0 310,0l-12 -129c-122,-52 -162,15 -205,-143 -9,-31 -15,-64 -37,-86l-219 -4c-62,187 -9,174 -203,223 -39,10 -32,1 -37,48 -19,167 -7,932 -5,1173 2,272 -13,256 442,244 183,-4 247,23 268,-85z"/>
   <path class="fil3" d="M401 2773c124,20 585,35 685,-9 8,-44 15,-92 11,-138 -8,-104 22,-114 -354,-110 -312,3 -362,-27 -358,109 1,48 -2,104 16,148z"/>
   <path class="fil3" d="M1607 2771c119,30 549,22 681,2 27,-90 16,-149 2,-239 -162,-17 -297,-20 -463,-15 -204,6 -261,-47 -233,196 3,28 2,36 13,56z"/>
   <path class="fil3" d="M701 1491l347 0 2 346c47,3 74,5 113,-6l3 -340 347 -3 -4 -112 -342 -3 -5 -310 -114 -4 -1 314 -348 0 2 118z"/>
   <path class="fil5" d="M3972 939c93,-22 103,121 30,129 -87,10 -123,-107 -30,-129zm-316 -75c26,54 426,453 482,473 74,-103 64,-323 -59,-439 -103,-95 -297,-149 -423,-34z"/>
   <path class="fil5" d="M4034 1448l-46 -68c-46,14 -70,38 -129,20l-6 -13c-21,-60 1,-79 31,-105 -13,-29 -163,-165 -178,-172 -19,26 -22,48 -42,75 -70,1 -96,-29 -92,-100 19,-15 46,-34 67,-48 -16,-27 -63,-69 -93,-81 -114,280 1,524 245,535 75,3 192,-6 243,-43z"/>
   <path class="fil3" d="M244 4000c50,-128 -36,-807 59,-935 74,-99 181,2 185,-153 -73,-10 -117,-17 -164,-54 -63,-52 -47,-86 -80,-150l0 1292z"/>
   <path class="fil3" d="M2283 1785c11,50 49,79 67,124 70,-20 263,-163 296,-207 -15,-24 -61,-92 -83,-109 -89,39 -210,147 -280,192z"/>
   <path class="fil3" d="M4189 4235l34 -19c-12,-60 -144,-229 -182,-283 -31,-45 -62,-84 -95,-134 -21,-31 -68,-137 -114,-109 -53,33 119,232 154,281 32,45 60,88 92,137 22,33 74,115 111,127z"/>
   <path class="fil3" d="M4021 4505c5,28 15,34 30,51 60,-4 325,-217 391,-264 33,-24 127,-65 98,-112 -24,-41 -340,203 -388,237 -40,29 -93,57 -131,88z"/>
   <path class="fil0" d="M3972 939c-93,22 -57,139 30,129 73,-8 63,-151 -30,-129z"/>
  </g>
 </g>
</svg>
