<?xml version="1.0" encoding="UTF-8"?>
<!DOCTYPE svg PUBLIC "-//W3C//DTD SVG 1.1//EN" "http://www.w3.org/Graphics/SVG/1.1/DTD/svg11.dtd">
<!-- Creator: CorelDRAW X8 -->
<svg xmlns="http://www.w3.org/2000/svg" xml:space="preserve" width="50mm" height="50mm" version="1.1" style="shape-rendering:geometricPrecision; text-rendering:geometricPrecision; image-rendering:optimizeQuality; fill-rule:evenodd; clip-rule:evenodd"
viewBox="0 0 5000 5000"
 xmlns:xlink="http://www.w3.org/1999/xlink">
 <defs>
  <style type="text/css">
   <![CDATA[
    .fil0 {fill:#FEFEFE}
    .fil1 {fill:#3EAAE1}
    .fil3 {fill:#1AA0DC}
    .fil2 {fill:#252424}
   ]]>
  </style>
   <clipPath id="id0">
    <rect x="526" y="119" width="4056" height="4767"/>
   </clipPath>
 </defs>
 <g id="图层_x0020_1">
  <metadata id="CorelCorpID_0Corel-Layer"/>
  <g style="clip-path:url(#id0)">
   <image x="526" y="119" width="4056" height="4767" xlink:href="vaccination_rate_Images\vaccination_rate_ImgID1.png"/>
  </g>
  <g id="_1442629302336">
   <path class="fil0" d="M2677 1234l17 87 107 3 11 -54c166,1 361,152 472,239 46,36 73,88 124,108 59,-46 120,-65 154,-121 55,-92 -9,-99 101,-170 299,-192 580,336 337,506 -157,109 -259,-68 -409,99 15,109 52,213 65,323 17,137 -6,232 -25,361l-67 4c-26,10 -22,17 -27,54 49,30 114,93 192,101 97,11 110,-52 239,7 308,140 -17,743 -314,518 -106,-80 -44,-122 -105,-192 -33,-39 -120,-91 -181,-110 -31,16 -47,39 -59,77l8 51c-29,23 -30,17 -56,43 -18,18 -28,27 -49,43 -237,176 -451,182 -524,247 -125,113 189,169 135,381 -93,372 -690,192 -585,-128 24,-74 129,-116 103,-268 -290,-73 -411,-149 -614,-325 11,-39 30,-46 52,-79 -6,-14 -6,-15 -16,-25 -21,-22 -4,-6 -22,-18 -262,74 -175,218 -283,299 -309,229 -617,-358 -324,-510 132,-69 132,5 229,-6 71,-8 146,-65 197,-94l-9 -70 -74 7c-13,-111 -44,-256 -31,-370 12,-110 62,-215 71,-330 -60,-29 -88,-91 -195,-67 -100,21 -132,28 -210,-27 -125,-88 -125,-256 -33,-393 65,-97 203,-216 367,-111 134,87 42,258 265,287 22,-13 47,-38 67,-54 130,-106 310,-285 516,-285l12 61 40 -2c-2,-60 7,-216 -2,-262 -7,-33 -80,-75 -104,-158 -88,-310 421,-452 560,-187 82,157 -42,275 -122,334l-1 176zm-2002 -416c-12,51 -4,621 -4,723 0,909 -99,1519 622,2103 35,29 62,56 94,84l387 333c131,115 695,606 792,657l387 -334c68,-56 132,-110 197,-168l771 -668c63,-68 119,-113 175,-181 227,-278 343,-628 344,-1097 1,-240 0,-480 0,-720 0,-235 9,-486 -1,-720 -51,-32 -402,-96 -494,-117 -167,-38 -322,-76 -484,-126 -153,-47 -308,-99 -455,-155 -545,-205 -318,-222 -904,-6 -151,56 -300,106 -451,158 -379,131 -601,157 -976,234z"/>
   <path class="fil1" d="M2507 2580c147,-33 274,81 297,197 30,154 -76,274 -194,298 -336,69 -434,-422 -103,-495zm-437 -760c319,-77 421,429 93,495 -326,65 -432,-414 -93,-495zm891 -4c318,-64 393,474 54,504 -299,27 -408,-432 -54,-504zm-615 -485l-40 2 15 65c-140,38 -240,88 -339,161 -226,167 -143,156 -244,242 -76,-46 -281,-144 -314,-201 -33,-58 13,-145 -83,-172 -135,-37 -242,221 -159,279 66,47 162,-32 196,-26 9,1 300,177 315,191 -12,94 -76,217 -95,326 -25,136 8,262 11,393l-58 24 9 70 157 -74 -24 -243 120 -4 75 295c-82,32 -494,287 -516,288 -58,-19 -101,-83 -181,-30 -171,114 232,517 217,99 127,-51 412,-270 523,-280 35,36 59,70 91,111 42,53 67,51 115,91 -15,54 -41,84 -70,111 -58,-11 -145,-109 -166,-147 -49,15 -123,66 -160,94 18,12 1,-4 22,18 10,10 10,11 16,25l60 -28c96,55 99,95 285,192 566,294 1024,-170 1086,-194 32,19 72,43 99,65 12,-38 28,-61 59,-77l-141 -86c-53,30 -128,127 -187,136 -21,-18 -56,-67 -67,-95 51,-33 160,-182 220,-221l252 142c84,45 179,97 253,145 -2,74 1,114 29,173 98,9 157,-17 194,-75 44,-69 50,-245 -91,-217 -76,15 3,125 -346,-91l-263 -149 72 -293 123 4 -24 233 145 70c5,-37 1,-44 27,-54 -19,-18 -37,-22 -60,-36 -15,-281 87,-209 -45,-563 -18,-48 -33,-112 -51,-153l321 -184c24,-3 73,37 109,44 186,35 153,-350 -128,-276l-9 167c-119,34 -236,155 -347,178 -29,-30 -64,-106 -172,-193 -101,-81 -253,-180 -395,-199l14 -80 -107 -3 -17 -87 -7 246 231 63 -64 144c-101,-15 -192,-64 -305,-64 -113,0 -209,53 -307,63l-63 -136c36,-30 135,-45 183,-66l1 -153z"/>
   <path class="fil2" d="M675 818c375,-77 597,-103 976,-234 151,-52 300,-102 451,-158 586,-216 359,-199 904,6 147,56 302,108 455,155 162,50 317,88 484,126 92,21 443,85 494,117 10,234 1,485 1,720 0,240 1,480 0,720 -1,469 -117,819 -344,1097 -56,68 -112,113 -175,181l-771 668c-65,58 -129,112 -197,168l-387 334c-97,-51 -661,-542 -792,-657l-387 -333c-32,-28 -59,-55 -94,-84 -721,-584 -622,-1194 -622,-2103 0,-102 -8,-672 4,-723zm-149 82l0 511c11,49 7,265 8,334 9,550 -71,975 220,1490 143,253 283,373 490,544 31,26 60,51 90,79l1059 913c74,64 16,29 142,115l36 0c2,-1 5,-6 6,-4 9,16 613,-518 631,-532l472 -400c533,-459 825,-708 882,-1452 5,-61 5,-242 19,-279l0 -1454c-28,-48 -33,-61 -95,-76l-408 -84c-521,-112 -889,-244 -1370,-441 -38,-15 -85,-27 -118,-45l-73 0c-33,17 -87,28 -121,42 -489,199 -796,313 -1331,438 -115,26 -450,67 -520,121l-19 180z"/>
   <path class="fil2" d="M2668 3759c-10,86 -18,131 -111,133 -212,3 -217,-225 -59,-212 65,6 128,54 170,79zm-889 -720c-22,33 -41,40 -52,79 203,176 324,252 614,325 26,152 -79,194 -103,268 -105,320 492,500 585,128 54,-212 -260,-268 -135,-381 73,-65 287,-71 524,-247 21,-16 31,-25 49,-43 26,-26 27,-20 56,-43l-8 -51c-27,-22 -67,-46 -99,-65 -62,24 -520,488 -1086,194 -186,-97 -189,-137 -285,-192l-60 28z"/>
   <path class="fil2" d="M2519 744c178,-41 185,162 27,202 -144,36 -246,-152 -27,-202zm-173 587l-1 153c-48,21 -147,36 -183,66l63 136c98,-10 194,-63 307,-63 113,0 204,49 305,64l64 -144 -231 -63 7 -246 1 -176c80,-59 204,-177 122,-334 -139,-265 -648,-123 -560,187 24,83 97,125 104,158 9,46 0,202 2,262z"/>
   <path class="fil2" d="M2801 1324l-14 80c142,19 294,118 395,199 108,87 143,163 172,193 111,-23 228,-144 347,-178l9 -167c281,-74 314,311 128,276 -36,-7 -85,-47 -109,-44l-321 184c18,41 33,105 51,153 132,354 30,282 45,563 23,14 41,18 60,36l67 -4c19,-129 42,-224 25,-361 -13,-110 -50,-214 -65,-323 150,-167 252,10 409,-99 243,-170 -38,-698 -337,-506 -110,71 -46,78 -101,170 -34,56 -95,75 -154,121 -51,-20 -78,-72 -124,-108 -111,-87 -306,-238 -472,-239l-11 54z"/>
   <path class="fil2" d="M1551 2615l58 -24c-3,-131 -36,-257 -11,-393 19,-109 83,-232 95,-326 -15,-14 -306,-190 -315,-191 -34,-6 -130,73 -196,26 -83,-58 24,-316 159,-279 96,27 50,114 83,172 33,57 238,155 314,201 101,-86 18,-75 244,-242 99,-73 199,-123 339,-161l-15 -65 -12 -61c-206,0 -386,179 -516,285 -20,16 -45,41 -67,54 -223,-29 -131,-200 -265,-287 -164,-105 -302,14 -367,111 -92,137 -92,305 33,393 78,55 110,48 210,27 107,-24 135,38 195,67 -9,115 -59,220 -71,330 -13,114 18,259 31,370l74 -7z"/>
   <path class="fil2" d="M3368 2997c61,19 148,71 181,110 61,70 -1,112 105,192 297,225 622,-378 314,-518 -129,-59 -142,4 -239,-7 -78,-8 -143,-71 -192,-101l-145 -70 24 -233 -123 -4 -72 293 263 149c349,216 270,106 346,91 141,-28 135,148 91,217 -37,58 -96,84 -194,75 -28,-59 -31,-99 -29,-173 -74,-48 -169,-100 -253,-145l-252 -142c-60,39 -169,188 -220,221 11,28 46,77 67,95 59,-9 134,-106 187,-136l141 86z"/>
   <path class="fil2" d="M1560 2685c-51,29 -126,86 -197,94 -97,11 -97,-63 -229,6 -293,152 15,739 324,510 108,-81 21,-225 283,-299 37,-28 111,-79 160,-94 21,38 108,136 166,147 29,-27 55,-57 70,-111 -48,-40 -73,-38 -115,-91 -32,-41 -56,-75 -91,-111 -111,10 -396,229 -523,280 15,418 -388,15 -217,-99 80,-53 123,11 181,30 22,-1 434,-256 516,-288l-75 -295 -120 4 24 243 -157 74z"/>
   <path class="fil2" d="M2510 2726c170,-63 213,161 95,209 -142,58 -251,-152 -95,-209zm-3 -146c-331,73 -233,564 103,495 118,-24 224,-144 194,-298 -23,-116 -150,-230 -297,-197z"/>
   <path class="fil2" d="M2000 2083c-19,-157 188,-187 231,-36 46,161 -214,182 -231,36zm70 -263c-339,81 -233,560 93,495 328,-66 226,-572 -93,-495z"/>
   <path class="fil2" d="M2966 1954c24,-5 67,3 90,12 77,27 58,199 -35,217 -152,29 -202,-198 -55,-229zm-5 -138c-354,72 -245,531 54,504 339,-30 264,-568 -54,-504z"/>
   <path class="fil3" d="M2668 3759c-42,-25 -105,-73 -170,-79 -158,-13 -153,215 59,212 93,-2 101,-47 111,-133z"/>
   <path class="fil0" d="M2000 2083c17,146 277,125 231,-36 -43,-151 -250,-121 -231,36z"/>
   <path class="fil3" d="M2519 744c-219,50 -117,238 27,202 158,-40 151,-243 -27,-202z"/>
   <path class="fil0" d="M2510 2726c-156,57 -47,267 95,209 118,-48 75,-272 -95,-209z"/>
   <path class="fil0" d="M2966 1954c-147,31 -97,258 55,229 93,-18 112,-190 35,-217 -23,-9 -66,-17 -90,-12z"/>
  </g>
 </g>
</svg>
